<svg xmlns="http://www.w3.org/2000/svg" viewBox="0 0 512 512">
  <defs>
    <linearGradient id="bg" x1="0" y1="0" x2="1" y2="1">
      <stop offset="0%" stop-color="#2d1b69"/>
      <stop offset="100%" stop-color="#6a1b9a"/>
    </linearGradient>
    <linearGradient id="book" x1="0" y1="0" x2="1" y2="0">
      <stop offset="0%" stop-color="#f59e0b"/>
      <stop offset="100%" stop-color="#f97316"/>
    </linearGradient>
  </defs>
  <rect width="512" height="512" rx="96" fill="url(#bg)"/>
  <path d="M256 168 C 216 140, 140 140, 116 156 L116 356 C 140 340, 216 340, 256 368 C 296 340, 372 340, 396 356 L396 156 C 372 140, 296 140, 256 168 Z" fill="url(#book)"/>
  <path d="M256 168 L256 368" stroke="#7c2d12" stroke-width="10"/>
  <circle cx="150" cy="105" r="12" fill="#fff9c4"/>
  <path d="M370 80 L378 104 L402 112 L378 120 L370 144 L362 120 L338 112 L362 104 Z" fill="#fff9c4"/>
</svg>
